<svg
    width="40"
    height="40"
    viewBox="0 0 40 40"
    fill="none"
    xmlns="http://www.w3.org/2000/svg"
    >
    <g clipPath="url(#clip0_1_3880)">
        <path
        d="M15.2344 19.8281C15.3282 19.8281 15.4062 19.9062 15.4062 20C15.4062 20.0938 15.3282 20.1719 15.2344 20.1719C15.1406 20.1719 15.0625 20.0938 15.0625 20C15.0625 19.9062 15.1406 19.8281 15.2344 19.8281Z"
        stroke="white"
        stroke-width="2"
        ></path>
        <path
        d="M15.2344 15.1406C15.2918 15.1406 15.3491 15.1416 15.4062 15.1436V15.4876C15.3492 15.4855 15.2919 15.4844 15.2344 15.4844C12.7438 15.4844 10.7188 17.5094 10.7188 20C10.7188 22.4906 12.7438 24.5156 15.2344 24.5156C15.2919 24.5156 15.3492 24.5145 15.4062 24.5124V24.8564C15.3491 24.8584 15.2918 24.8594 15.2344 24.8594C12.5562 24.8594 10.375 22.6782 10.375 20C10.375 17.3218 12.5562 15.1406 15.2344 15.1406Z"
        stroke="white"
        stroke-width="2"
        ></path>
        <path
        d="M15.4062 5.76562H12.8906C12.796 5.76562 12.7188 5.84291 12.7188 5.9375V7.59687V8.35211L11.9923 8.55872C11.1098 8.80974 10.2584 9.16443 9.44688 9.62137L8.78569 9.99365L8.24914 9.45711L7.06946 8.27742C7.00217 8.21013 6.89393 8.21013 6.82664 8.27742L3.51179 11.5923C3.44538 11.6587 3.44515 11.7683 3.51169 11.835C3.51173 11.835 3.51176 11.835 3.51179 11.8351L4.69125 13.0138L5.22795 13.5501L4.85593 14.2114C4.39883 15.0239 4.04411 15.8755 3.7931 16.758L3.58648 17.4844H2.83125H1.17188C1.07728 17.4844 1 17.5617 1 17.6562V22.3438C1 22.4383 1.07728 22.5156 1.17188 22.5156H2.83125H3.58648L3.7931 23.242C4.04412 24.1246 4.39881 24.976 4.85574 25.7875L5.22803 26.4487L4.69148 26.9852L3.5118 28.1649C3.44515 28.2316 3.44535 28.3413 3.51179 28.4077L6.82664 31.7226L6.11953 32.4297L6.82664 31.7226C6.89385 31.7898 7.00192 31.7899 7.06922 31.7228L15.4062 5.76562ZM15.4062 5.76562V10.7984C15.349 10.7974 15.2917 10.7969 15.2344 10.7969C10.1587 10.7969 6.03125 14.9243 6.03125 20C6.03125 25.0757 10.1587 29.2031 15.2344 29.2031C15.2917 29.2031 15.349 29.2026 15.4062 29.2016V34.2344H12.8906C12.796 34.2344 12.7188 34.1571 12.7188 34.0625V32.4031V31.6479L11.9923 31.4413C11.1103 31.1904 10.2585 30.8349 9.44518 30.3781L8.78409 30.0068L8.24813 30.5431L7.06946 31.7226L15.4062 5.76562Z"
        stroke="white"
        stroke-width="2"
        ></path>
        <path
        d="M36.8998 10.7969H33.9688V7.86578L36.8998 10.7969ZM27.1094 10.7969H22.2656C21.0665 10.7969 20.0938 11.7696 20.0938 12.9688C20.0938 14.1679 21.0665 15.1406 22.2656 15.1406H27.1094C28.3085 15.1406 29.2812 14.1679 29.2812 12.9688C29.2812 11.7696 28.3085 10.7969 27.1094 10.7969ZM22.2656 29.2031H34.1406C35.3398 29.2031 36.3125 28.2304 36.3125 27.0312C36.3125 25.8321 35.3398 24.8594 34.1406 24.8594H22.2656C21.0665 24.8594 20.0938 25.8321 20.0938 27.0312C20.0938 28.2304 21.0665 29.2031 22.2656 29.2031ZM22.2656 24.5156H34.1406C35.3398 24.5156 36.3125 23.5429 36.3125 22.3438C36.3125 21.1446 35.3398 20.1719 34.1406 20.1719H22.2656C21.0665 20.1719 20.0938 21.1446 20.0938 22.3438C20.0938 23.5429 21.0665 24.5156 22.2656 24.5156ZM22.2656 19.8281H34.1406C35.3398 19.8281 36.3125 18.8554 36.3125 17.6562C36.3125 16.4571 35.3398 15.4844 34.1406 15.4844H22.2656C21.0665 15.4844 20.0938 16.4571 20.0938 17.6562C20.0938 18.8554 21.0665 19.8281 22.2656 19.8281ZM29.625 12.9688C29.625 14.1679 30.5977 15.1406 31.7969 15.1406H39V34.0625C39 34.1571 38.9227 34.2344 38.8281 34.2344H19.75V5.76562H29.625V12.9688Z"
        stroke="white"
        stroke-width="2"
        ></path>
    </g>
    <defs>
        <clipPath id="clip0_1_3880">
        <rect width="40" height="40" fill="white"></rect>
        </clipPath>
    </defs>
</svg>