<svg
width="40"
height="40"
viewBox="0 0 40 40"
fill="none"
xmlns="http://www.w3.org/2000/svg"
>
<g clipPath="url(#clip0_3114_85)">
    <path
    d="M8.47057 25.272L8.30386 24.5886L7.60437 24.5145L3.44531 24.0741V23.4492H13.1554C13.6399 26.7944 16.5191 29.3642 19.9986 29.3642C23.4781 29.3642 26.3573 26.7944 26.8418 23.4492H36.5519V24.0741L32.3928 24.5145L31.6933 24.5886L31.5266 25.272C31.2361 26.4628 30.7657 27.5835 30.1455 28.6037L29.78 29.2048L30.2223 29.7519L32.8526 33.0052L30.5546 35.3032L27.3013 32.6729L26.7542 32.2306L26.1531 32.5961C25.1329 33.2163 24.0122 33.6867 22.8214 33.9772L22.138 34.144L22.0639 34.8434L21.6235 39.0025H18.3737L17.9333 34.8434L17.8592 34.144L17.1758 33.9772C15.985 33.6867 14.8643 33.2163 13.8441 32.5961L13.243 32.2306L12.6959 32.6729L9.44264 35.3032L7.14462 33.0052L9.7749 29.7519L10.2172 29.2048L9.85174 28.6037C9.23149 27.5835 8.76108 26.4628 8.47057 25.272Z"
    stroke="white"
    stroke-width="2"
    ></path>
    <path
    d="M16.4688 4.53383C16.4688 2.58619 18.0549 1 20.0026 1C21.9502 1 23.5364 2.58619 23.5364 4.53383C23.5364 6.48144 21.9502 8.06758 20.0026 8.06758C18.0549 8.06758 16.4688 6.48144 16.4688 4.53383Z"
    stroke="white"
    stroke-width="2"
    ></path>
    <path
    d="M15.1714 11.3203C15.1714 11.3203 15.1714 11.3203 15.1714 11.3203H24.8256C26.4959 11.3203 27.8564 12.6808 27.8564 14.3511V19.1022H12.1406V14.3511C12.1406 12.6808 13.5011 11.3204 15.1714 11.3203Z"
    stroke="white"
    stroke-width="2"
    ></path>
    <path
    d="M7.32031 6.15523C7.32031 4.46805 8.69456 3.09375 10.3818 3.09375C12.069 3.09375 13.4433 4.46799 13.4433 6.15523C13.4433 6.53521 13.3739 6.89812 13.2473 7.23309C11.9658 7.58005 10.8238 8.26377 9.92085 9.181C8.45111 8.95792 7.32031 7.68532 7.32031 6.15523Z"
    stroke="white"
    stroke-width="2"
    ></path>
    <path
    d="M3.44531 14.9507C3.44531 13.5119 4.61743 12.3398 6.05617 12.3398H8.07626C7.89441 12.9798 7.79695 13.6548 7.79695 14.3515V19.1027H3.44531V14.9507Z"
    stroke="white"
    stroke-width="2"
    ></path>
    <path
    d="M26.5547 6.15523C26.5547 4.46805 27.9289 3.09375 29.6162 3.09375C31.3034 3.09375 32.6777 4.46799 32.6777 6.15523C32.6777 7.68535 31.5468 8.95797 30.0771 9.18101C29.1742 8.26377 28.0322 7.58005 26.7506 7.23309C26.624 6.89813 26.5547 6.5352 26.5547 6.15523Z"
    stroke="white"
    stroke-width="2"
    ></path>
    <path
    d="M32.1955 14.3515C32.1955 13.6548 32.0981 12.9798 31.9162 12.3398H33.9363C35.3751 12.3398 36.5472 13.5119 36.5472 14.9506V19.1026H32.1955V14.3515Z"
    stroke="white"
    stroke-width="2"
    ></path>
</g>
<defs>
    <clipPath id="clip0_3114_85">
    <rect width="40" height="40" fill="white"></rect>
    </clipPath>
</defs>
</svg>