<svg
    width="40"
    height="40"
    viewBox="0 0 40 40"
    fill="none"
    xmlns="http://www.w3.org/2000/svg"
    >
    <path
        d="M18.2083 8.16388L17.9596 7.24922L17.9595 7.24872C17.8319 6.77864 17.9928 6.28194 18.3735 5.97623L19.1121 5.38259L18.1653 5.33645C18.1653 5.33645 18.1653 5.33644 18.1652 5.33644C17.6783 5.31272 17.2557 5.00597 17.0825 4.54985L18.2083 8.16388ZM18.2083 8.16388L17.4154 7.64482C17.4153 7.64478 17.4152 7.64474 17.4152 7.64469C17.0071 7.37756 16.485 7.37756 16.077 7.6447C16.0769 7.64474 16.0769 7.64478 16.0768 7.64482L15.2839 8.16389L15.5325 7.24911L15.5327 7.24864C15.66 6.77937 15.5 6.28257 15.119 5.97639C15.1189 5.97631 15.1188 5.97623 15.1187 5.97615L14.3802 5.38251L15.3269 5.33637C15.3269 5.33637 15.327 5.33637 15.327 5.33636C15.8146 5.31261 16.2365 5.00534 16.4095 4.5503L16.4097 4.54977L16.7461 3.66378L17.0824 4.54961L18.2083 8.16388ZM8.79717 9.34986L7.85042 9.30371C7.85038 9.30371 7.85034 9.30371 7.8503 9.30371C7.3627 9.27996 6.94088 8.97268 6.76781 8.51765L6.76759 8.51706L6.43122 7.63097L6.09499 8.51653C6.09496 8.51661 6.09493 8.51669 6.0949 8.51677C6.09486 8.51686 6.09483 8.51695 6.0948 8.51704C5.92146 8.97372 5.49851 9.27994 5.01211 9.30363C5.01207 9.30363 5.01202 9.30363 5.01198 9.30364L4.06523 9.34978L4.80412 9.94365L4.80435 9.94384C5.18406 10.2492 5.34567 10.7455 5.21762 11.2164L8.79717 9.34986ZM8.79717 9.34986L8.05828 9.94373L8.05806 9.94392C7.67835 10.2493 7.51674 10.7456 7.64478 11.2165C7.64481 11.2166 7.64484 11.2167 7.64487 11.2168L7.89347 12.1312L7.10045 11.6121C7.10039 11.612 7.10032 11.612 7.10026 11.612C6.69221 11.3448 6.17011 11.3448 5.76206 11.612C5.762 11.612 5.76194 11.612 5.76187 11.6121L4.96893 12.1312L5.21753 11.2167L8.79717 9.34986ZM29.4265 9.34986L28.4798 9.30371C28.4798 9.30371 28.4797 9.30371 28.4797 9.30371C27.9921 9.27996 27.5702 8.97269 27.3972 8.51764L27.3969 8.51702L27.0607 7.63101L26.7244 8.51651L26.7243 8.51704L25.7894 8.16208C25.7574 8.24638 25.6829 8.30044 25.5929 8.30482L29.4265 9.34986ZM29.4265 9.34986L28.6877 9.94373L28.6874 9.94392C28.3077 10.2493 28.1461 10.7456 28.2742 11.2165C28.2742 11.2166 28.2742 11.2167 28.2742 11.2168L28.5229 12.1311L27.7299 11.6121C27.7298 11.612 27.7298 11.612 27.7297 11.612C27.3217 11.3448 26.7996 11.3448 26.3915 11.612C26.3914 11.612 26.3914 11.6121 26.3913 11.6121L25.5984 12.1312L25.847 11.2167C25.9752 10.7458 25.8136 10.2493 25.4338 9.94384L25.4336 9.94365L24.6947 9.34978L25.6414 9.30364C25.6415 9.30363 25.6415 9.30363 25.6416 9.30363L29.4265 9.34986ZM22.6289 34.0944L5.87655 34.0945C6.93653 29.0644 11.4013 25.2884 16.7462 25.2884C19.2843 25.2884 21.6217 26.1389 23.4922 27.5713C22.7777 28.8671 22.3707 30.3567 22.3707 31.9396C22.3707 32.6814 22.4601 33.4032 22.6289 34.0944ZM5.81253 34.4229L5.81257 34.4226L5.81253 34.4229ZM30.533 31.1225L29.7219 30.3115C28.9369 29.5265 27.6641 29.5266 26.8791 30.3114L26.8791 30.3115C26.0942 31.0964 26.0942 32.3693 26.8791 33.1542L29.1173 35.3924C29.9022 36.1773 31.1751 36.1773 31.96 35.3924C32.8105 34.5419 33.6582 33.6821 34.5029 32.8252C34.9993 32.3218 35.4946 31.8194 35.989 31.3204C36.7675 30.5347 36.7664 29.2648 35.9794 28.4822C35.194 27.7011 33.9201 27.7015 33.1374 28.4921L33.1373 28.4921L30.533 31.1225ZM31.431 26.1292C34.64 26.1292 37.2414 28.7306 37.2414 31.9396C37.2414 35.1485 34.64 37.75 31.431 37.75C28.222 37.75 25.6206 35.1485 25.6206 31.9396C25.6206 28.7306 28.222 26.1292 31.431 26.1292ZM16.7462 12.2624C19.5752 12.2624 21.8686 14.5558 21.8686 17.3847C21.8686 20.2137 19.5752 22.5071 16.7462 22.5071C13.9173 22.5071 11.6239 20.2137 11.6239 17.3847C11.6238 14.5558 13.9172 12.2624 16.7462 12.2624Z"
        stroke="white"
        stroke-width="2"
    ></path>
</svg>