 <svg
    width="40"
    height="40"
    viewBox="0 0 40 40"
    fill="none"
    xmlns="http://www.w3.org/2000/svg"
    >
    <path
        d="M30.201 24.3999L31.4084 24.0315C31.4845 24.0083 31.558 23.9861 31.6291 23.9647C32.0188 23.8471 32.336 23.7514 32.6153 23.6256C32.9374 23.4807 33.0585 23.3578 33.1071 23.2739L33.1072 23.2738C33.1468 23.2054 33.1873 23.0789 33.1785 22.8282C33.1694 22.5711 33.1127 22.2675 33.0262 21.8854C33.0098 21.8128 32.9919 21.7359 32.9733 21.656C32.9023 21.3513 32.821 21.002 32.7701 20.6734C32.7054 20.2548 32.6673 19.7484 32.794 19.2468L32.794 19.2466C32.9208 18.7451 33.1869 18.315 33.442 17.9695C33.6516 17.6856 33.8976 17.4033 34.1109 17.1584C34.1549 17.1078 34.1976 17.0588 34.2383 17.0118C34.4957 16.7139 34.6915 16.4726 34.8258 16.249C34.9577 16.0292 34.985 15.8985 34.985 15.8237C34.985 15.7584 34.9555 15.6081 34.8023 15.3367C34.6529 15.072 34.4385 14.7815 34.173 14.4397C34.1266 14.38 34.0783 14.3182 34.0286 14.2548C33.812 13.9781 33.5714 13.6708 33.3664 13.3708C33.1165 13.005 32.8541 12.5598 32.7299 12.0718L32.7299 12.0717C32.6023 11.5704 32.6395 11.0639 32.7035 10.6452C32.7537 10.3164 32.8344 9.96702 32.9048 9.66213C32.9233 9.58222 32.941 9.50536 32.9573 9.43273C33.0431 9.05044 33.0993 8.74677 33.1078 8.48969C33.1162 8.239 33.0755 8.11266 33.0357 8.04436L33.0357 8.04433C32.9959 7.97598 32.9062 7.87809 32.6841 7.76147C32.4564 7.64187 32.1647 7.54057 31.7899 7.42624C31.7188 7.40452 31.6432 7.38197 31.5646 7.35851C31.2648 7.26901 30.9211 7.16644 30.6105 7.04764C30.2149 6.89631 29.7562 6.67825 29.3834 6.31954L29.3834 6.31948C29.0079 5.9581 28.7671 5.50858 28.5955 5.11375C28.4563 4.79366 28.3357 4.44209 28.2311 4.13734C28.2078 4.06937 28.1853 4.00373 28.1636 3.94129C28.0338 3.56872 27.9227 3.28133 27.7967 3.05891C27.6733 2.84108 27.5779 2.76315 27.5213 2.73289C27.4627 2.70162 27.3425 2.66535 27.0908 2.68328C26.8338 2.7016 26.5312 2.7683 26.1481 2.86623C26.0851 2.88233 26.0191 2.89951 25.9509 2.91728C25.6375 2.99888 25.2759 3.09304 24.9306 3.15371C24.5068 3.22815 23.9979 3.2749 23.4888 3.15757C22.9847 3.04139 22.5515 2.78039 22.2055 2.53087C21.9205 2.3254 21.6359 2.08265 21.3889 1.8719C21.338 1.82847 21.2887 1.78639 21.2412 1.74628C20.9406 1.49191 20.6952 1.29674 20.4668 1.16246C20.2421 1.03042 20.1036 1 20.019 1C19.9254 1 19.7145 1.04743 19.3715 1.2249C19.0484 1.39212 18.6968 1.62751 18.3461 1.88717C18.062 2.09752 17.7999 2.30744 17.563 2.49722C17.5075 2.5416 17.4535 2.58488 17.4009 2.6268C17.2685 2.73228 17.1348 2.83742 17.0188 2.92037C16.961 2.96175 16.8928 3.00836 16.8213 3.0502C16.7696 3.08048 16.6343 3.15843 16.4599 3.19898L30.201 24.3999ZM30.201 24.3999L30.8359 25.491M30.201 24.3999L30.8359 25.491M30.8359 25.491L33.7525 30.5035L35.3657 33.2761L35.8795 34.1592L35.9005 34.1952L32.7085 34.3343C32.1437 34.3589 31.58 34.5671 31.1174 34.8363C30.6547 35.1055 30.1954 35.4926 29.8949 35.9709L29.8947 35.9712L28.1961 38.6774L28.1411 38.5827L27.5442 37.5567L25.7329 34.4431L23.9212 31.329L23.324 30.3024L23.1566 30.0146L23.1125 29.9387L23.1095 29.9336C23.035 29.7938 22.9147 29.627 22.7215 29.4969C22.4913 29.3418 22.2326 29.2897 21.9967 29.3119C21.6243 29.347 21.3764 29.562 21.3323 29.6001C21.3307 29.6016 21.3293 29.6028 21.3282 29.6037L21.3278 29.604C21.0315 29.8568 20.7866 30.0495 20.5606 30.1805C20.3387 30.3091 20.197 30.3408 20.1054 30.3408C19.9943 30.3408 19.7894 30.2936 19.5013 30.1453C19.2265 30.0037 18.9443 29.8054 18.7006 29.5978L18.6996 29.597C18.4977 29.4256 18.2029 29.2999 17.8614 29.3273C17.4994 29.3563 17.2168 29.545 17.0294 29.764L17.0293 29.764L17.0207 29.7743C16.9762 29.8319 16.9331 29.8973 16.9302 29.9021L16.9269 29.9077L16.9245 29.9118L16.9208 29.9183L16.9089 29.9387L16.8644 30.0154L16.6966 30.305L16.0984 31.3374L14.2846 34.4686L12.4711 37.5993L11.8735 38.631L11.8177 38.7274M30.8359 25.491L11.8177 38.7274M11.8177 38.7274L10.1143 36.0244L10.1142 36.0242C9.81275 35.5462 9.35263 35.1599 8.8895 34.8916C8.42635 34.6232 7.8624 34.4163 7.29785 34.3925L7.29747 34.3925L4.10525 34.2594L4.13129 34.2144L4.65498 33.3106L6.28254 30.5017L9.04258 25.7381C9.15311 25.5625 9.23997 25.3312 9.23062 25.0595C9.22051 24.7653 9.10146 24.5338 8.97728 24.3776C8.76016 24.1046 8.47587 23.9866 8.32114 23.9403C7.89448 23.8126 7.55984 23.7077 7.28942 23.5757C7.02501 23.4466 6.92195 23.3377 6.87831 23.2628C6.83848 23.1943 6.79773 23.0678 6.8061 22.8171C6.81469 22.56 6.87081 22.2563 6.95663 21.874C6.97293 21.8014 6.99068 21.7245 7.00913 21.6446C7.07951 21.3397 7.16018 20.9903 7.21042 20.6616C7.27442 20.2428 7.31153 19.7363 7.18395 19.235C7.05628 18.7333 6.78913 18.3035 6.53324 17.9585C6.32305 17.6752 6.07657 17.3935 5.86282 17.1492C5.81846 17.0985 5.77551 17.0494 5.73458 17.0023C5.47649 16.7049 5.28026 16.4641 5.14585 16.241C5.01374 16.0217 4.98664 15.8917 4.98664 15.8175C4.98664 15.6897 5.03055 15.513 5.1719 15.2597C5.31499 15.0033 5.52187 14.7307 5.78272 14.4118C5.83965 14.3423 5.90062 14.2688 5.96385 14.1926C6.16776 13.9469 6.39522 13.6728 6.58683 13.4087C6.83937 13.0606 7.11006 12.626 7.23523 12.1302L7.23524 12.1301C7.36184 11.6285 7.32376 11.1221 7.25897 10.7034C7.2081 10.3747 7.12677 10.0254 7.0558 9.72067C7.0372 9.64081 7.01932 9.56401 7.00288 9.49144C6.91633 9.10932 6.85965 8.80579 6.85058 8.54877C6.84173 8.29813 6.88225 8.17176 6.92185 8.10341L6.92186 8.1034C6.96152 8.03494 7.05108 7.93687 7.27295 7.81983C7.50046 7.69981 7.792 7.59797 8.16653 7.48295C8.2377 7.46109 8.31327 7.43839 8.39184 7.41478C8.69148 7.32474 9.03488 7.22155 9.34525 7.1022C9.74062 6.95017 10.1989 6.73129 10.571 6.37195L10.5711 6.37189C10.946 6.00984 11.1859 5.55986 11.3568 5.16474C11.4954 4.8444 11.6153 4.4926 11.7193 4.18765C11.7425 4.11964 11.7649 4.05395 11.7865 3.99147C11.9156 3.61865 12.0262 3.33104 12.1518 3.10838C12.2748 2.89031 12.3701 2.81223 12.4266 2.78187L12.4268 2.78175C12.4852 2.75037 12.6052 2.71378 12.8571 2.73124C13.1141 2.74905 13.4167 2.81519 13.8 2.91243C13.8631 2.92843 13.9291 2.94551 13.9975 2.96318C14.3109 3.0442 14.6726 3.1377 15.018 3.19774C15.4419 3.27142 15.9509 3.31728 16.4598 3.19898L11.8177 38.7274ZM13.1421 26.4073L13.1421 26.4073C7.44646 22.759 5.57247 15.2148 8.99664 9.30476M13.1421 26.4073L26.1015 4.5036M13.1421 26.4073L13.148 26.411C17.0308 28.8601 22.1187 29.1272 26.3604 26.6595C32.4302 23.1283 34.4946 15.3193 30.9634 9.2495L30.9634 9.24947C29.8085 7.2644 28.1942 5.70637 26.333 4.63328L26.3286 4.63081C26.2854 4.60617 26.2414 4.5814 26.1968 4.5567M13.1421 26.4073L26.1968 4.5567M8.99664 9.30476L9.8619 9.80608L8.99664 9.30476ZM8.99664 9.30476C12.4597 3.32683 20.0698 1.21854 26.1015 4.5036M26.1015 4.5036C26.1293 4.51871 26.1599 4.53594 26.1818 4.54826C26.1875 4.55144 26.1925 4.55429 26.1968 4.5567M26.1015 4.5036L26.1968 4.5567M36.093 34.4774C36.093 34.4773 36.0931 34.4773 36.0931 34.4773C36.115 34.4646 36.1595 34.4387 36.2498 34.3861L36.093 34.4774ZM28.3462 38.9843L28.1892 39.0757C28.2795 39.0231 28.3241 38.9971 28.3461 38.9843C28.3461 38.9843 28.3461 38.9843 28.3462 38.9843ZM3.91305 34.5417L3.75628 34.4508C3.84647 34.5031 3.89103 34.5289 3.91303 34.5416C3.91303 34.5416 3.91305 34.5417 3.91305 34.5417Z"
        stroke="white"
        stroke-width="2"
    ></path>
    <path
        d="M24.4629 8.00983L24.463 8.00991C28.6958 10.4621 30.1447 15.9024 27.6926 20.1353C25.2404 24.3679 19.8 25.8171 15.5672 23.3649L15.5671 23.3648C15.4661 23.3063 15.3644 23.2438 15.2589 23.177L15.259 23.177L15.2526 23.173C14.0664 22.4342 13.0385 21.4052 12.2874 20.1142L12.2874 20.1141C9.82754 15.886 11.2669 10.4427 15.4952 7.98273L15.4952 7.98272C18.3426 6.32614 21.7428 6.43638 24.4145 7.98268L24.4181 7.9847C24.4337 7.99366 24.4489 8.00204 24.4549 8.00536C24.4601 8.00828 24.4623 8.00949 24.4629 8.00983ZM20.7404 21.3954L22.7792 22.4672L22.7792 22.4672C23.2338 22.7062 23.9556 22.8946 24.5787 22.4418C25.2019 21.9891 25.2457 21.2444 25.1589 20.7382C25.1589 20.7382 25.1589 20.7382 25.1589 20.7382L24.7695 18.4681L24.7695 18.4679C24.7437 18.3177 24.7595 18.0646 24.8528 17.7772C24.9462 17.4897 25.0822 17.2757 25.1913 17.1694L25.1913 17.1694L26.8407 15.5617C26.8407 15.5617 26.8408 15.5616 26.8408 15.5616C27.2087 15.2031 27.6107 14.5749 27.3728 13.8424C27.1349 13.11 26.4404 12.8379 25.9321 12.764L25.9319 12.7639L23.6526 12.4327L23.6526 12.4327C23.5017 12.4108 23.2658 12.3175 23.0213 12.1399C22.7768 11.9623 22.6152 11.7667 22.5478 11.63L22.5478 11.63L21.5284 9.56476C21.5283 9.56472 21.5283 9.56467 21.5283 9.56463C21.301 9.10399 20.8277 8.52745 20.0576 8.52745C19.2874 8.52745 18.8141 9.10402 18.5868 9.56464L18.5868 9.56467L17.5674 11.63C17.5 11.7667 17.3384 11.9622 17.0938 12.1399C16.8493 12.3175 16.6134 12.4108 16.4626 12.4327L16.6064 13.4223L16.4626 12.4327L14.1833 12.7639L14.1831 12.764C13.6749 12.8379 12.9803 13.1099 12.7423 13.8423C12.5043 14.5748 12.9064 15.203 13.2743 15.5616C13.2743 15.5617 13.2744 15.5617 13.2744 15.5617L14.9236 17.1693L14.9237 17.1694C15.0328 17.2757 15.1688 17.4897 15.2622 17.7772C15.3556 18.0647 15.3714 18.3178 15.3456 18.468L15.3456 18.4681L14.9562 20.7382C14.9562 20.7382 14.9562 20.7382 14.9562 20.7382C14.8694 21.2445 14.9133 21.9892 15.5365 22.4419C16.1596 22.8946 16.8814 22.7062 17.336 22.4672L17.3361 22.4672L19.3747 21.3954C19.3747 21.3954 19.3747 21.3953 19.3748 21.3953C19.5097 21.3244 19.7554 21.2612 20.0575 21.2612C20.3598 21.2612 20.6054 21.3244 20.7403 21.3953C20.7404 21.3953 20.7404 21.3954 20.7404 21.3954Z"
        stroke="white"
        stroke-width="2"
    ></path>
</svg>